solid Exported from Blender-2.82 (sub 7)
facet normal -1.000000 0.000000 0.000000
outer loop
vertex -0.020000 -0.000788 -0.000615
vertex -0.020000 -0.000803 -0.000596
vertex -0.020000 0.000000 -0.000000
endloop
endfacet
facet normal -1.000000 0.000000 0.000000
outer loop
vertex -0.020000 0.000314 0.000950
vertex -0.020000 0.000337 0.000942
vertex -0.020000 0.000000 -0.000000
endloop
endfacet
facet normal -1.000000 0.000000 0.000000
outer loop
vertex -0.020000 -0.000773 -0.000634
vertex -0.020000 -0.000788 -0.000615
vertex -0.020000 0.000000 -0.000000
endloop
endfacet
facet normal -1.000000 0.000000 0.000000
outer loop
vertex -0.020000 0.000290 0.000957
vertex -0.020000 0.000314 0.000950
vertex -0.020000 0.000000 -0.000000
endloop
endfacet
facet normal -1.000000 0.000074 0.000000
outer loop
vertex -0.020000 -0.000757 -0.000653
vertex -0.020000 -0.000773 -0.000634
vertex -0.020000 0.000000 -0.000000
endloop
endfacet
facet normal -1.000000 0.000000 0.000000
outer loop
vertex -0.020000 0.000267 0.000964
vertex -0.020000 0.000290 0.000957
vertex -0.020000 0.000000 -0.000000
endloop
endfacet
facet normal -1.000000 0.000000 0.000000
outer loop
vertex -0.020000 -0.000741 -0.000672
vertex -0.020000 -0.000757 -0.000653
vertex -0.020000 0.000000 -0.000000
endloop
endfacet
facet normal -1.000000 0.000000 0.000000
outer loop
vertex -0.020000 0.000243 0.000970
vertex -0.020000 0.000267 0.000964
vertex -0.020000 0.000000 -0.000000
endloop
endfacet
facet normal -1.000000 0.000000 0.000000
outer loop
vertex -0.020000 -0.000724 -0.000690
vertex -0.020000 -0.000741 -0.000672
vertex -0.020000 0.000000 -0.000000
endloop
endfacet
facet normal -1.000000 -0.000148 0.000000
outer loop
vertex -0.020000 0.000219 0.000976
vertex -0.020000 0.000243 0.000970
vertex -0.020000 0.000000 -0.000000
endloop
endfacet
facet normal -1.000000 0.000000 0.000000
outer loop
vertex -0.020000 -0.000707 -0.000707
vertex -0.020000 -0.000724 -0.000690
vertex -0.020000 0.000000 -0.000000
endloop
endfacet
facet normal -1.000000 0.000148 0.000000
outer loop
vertex -0.020000 0.000195 0.000981
vertex -0.020000 0.000219 0.000976
vertex -0.020000 0.000000 -0.000000
endloop
endfacet
facet normal -1.000000 0.000000 0.000000
outer loop
vertex -0.020000 -0.000690 -0.000724
vertex -0.020000 -0.000707 -0.000707
vertex -0.020000 0.000000 -0.000000
endloop
endfacet
facet normal -1.000000 0.000000 0.000000
outer loop
vertex -0.020000 0.000171 0.000985
vertex -0.020000 0.000195 0.000981
vertex -0.020000 0.000000 -0.000000
endloop
endfacet
facet normal -1.000000 -0.000074 0.000000
outer loop
vertex -0.020000 -0.000672 -0.000741
vertex -0.020000 -0.000690 -0.000724
vertex -0.020000 0.000000 -0.000000
endloop
endfacet
facet normal -1.000000 0.000000 0.000000
outer loop
vertex -0.020000 0.000147 0.000989
vertex -0.020000 0.000171 0.000985
vertex -0.020000 0.000000 -0.000000
endloop
endfacet
facet normal -1.000000 0.000074 0.000000
outer loop
vertex -0.020000 -0.000653 -0.000757
vertex -0.020000 -0.000672 -0.000741
vertex -0.020000 0.000000 -0.000000
endloop
endfacet
facet normal -1.000000 0.000000 0.000000
outer loop
vertex -0.020000 0.000122 0.000992
vertex -0.020000 0.000147 0.000989
vertex -0.020000 0.000000 -0.000000
endloop
endfacet
facet normal -1.000000 0.000000 0.000000
outer loop
vertex -0.020000 -0.000634 -0.000773
vertex -0.020000 -0.000653 -0.000757
vertex -0.020000 0.000000 -0.000000
endloop
endfacet
facet normal -1.000000 0.000000 0.000000
outer loop
vertex -0.020000 0.000098 0.000995
vertex -0.020000 0.000122 0.000992
vertex -0.020000 0.000000 -0.000000
endloop
endfacet
facet normal -1.000000 0.000000 0.000000
outer loop
vertex -0.020000 -0.000615 -0.000788
vertex -0.020000 -0.000634 -0.000773
vertex -0.020000 0.000000 -0.000000
endloop
endfacet
facet normal -1.000000 0.000000 0.000000
outer loop
vertex -0.020000 0.000074 0.000997
vertex -0.020000 0.000098 0.000995
vertex -0.020000 0.000000 -0.000000
endloop
endfacet
facet normal -1.000000 -0.000148 0.000000
outer loop
vertex -0.020000 -0.000596 -0.000803
vertex -0.020000 -0.000615 -0.000788
vertex -0.020000 0.000000 -0.000000
endloop
endfacet
facet normal -1.000000 -0.000148 0.000000
outer loop
vertex -0.020000 0.000049 0.000999
vertex -0.020000 0.000074 0.000997
vertex -0.020000 0.000000 -0.000000
endloop
endfacet
facet normal -1.000000 0.000000 0.000000
outer loop
vertex -0.020000 -0.000576 -0.000818
vertex -0.020000 -0.000596 -0.000803
vertex -0.020000 0.000000 -0.000000
endloop
endfacet
facet normal -1.000000 0.000000 0.000000
outer loop
vertex -0.020000 0.000025 0.001000
vertex -0.020000 0.000049 0.000999
vertex -0.020000 0.000000 -0.000000
endloop
endfacet
facet normal -1.000000 0.000000 0.000000
outer loop
vertex -0.020000 -0.000556 -0.000831
vertex -0.020000 -0.000576 -0.000818
vertex -0.020000 0.000000 -0.000000
endloop
endfacet
facet normal -1.000000 0.000000 0.000000
outer loop
vertex -0.020000 0.000000 0.001000
vertex -0.020000 0.000025 0.001000
vertex -0.020000 0.000000 -0.000000
endloop
endfacet
facet normal -1.000000 0.000000 0.000000
outer loop
vertex -0.020000 -0.000535 -0.000845
vertex -0.020000 -0.000556 -0.000831
vertex -0.020000 0.000000 -0.000000
endloop
endfacet
facet normal -1.000000 0.000000 0.000000
outer loop
vertex -0.020000 -0.000025 0.001000
vertex -0.020000 0.000000 0.001000
vertex -0.020000 0.000000 -0.000000
endloop
endfacet
facet normal -1.000000 0.000000 0.000000
outer loop
vertex -0.020000 -0.000514 -0.000858
vertex -0.020000 -0.000535 -0.000845
vertex -0.020000 0.000000 -0.000000
endloop
endfacet
facet normal -1.000000 0.000148 0.000000
outer loop
vertex -0.020000 -0.000049 0.000999
vertex -0.020000 -0.000025 0.001000
vertex -0.020000 0.000000 -0.000000
endloop
endfacet
facet normal -1.000000 0.000000 0.000000
outer loop
vertex -0.020000 -0.000493 -0.000870
vertex -0.020000 -0.000514 -0.000858
vertex -0.020000 0.000000 -0.000000
endloop
endfacet
facet normal -1.000000 0.000000 0.000000
outer loop
vertex -0.020000 -0.000074 0.000997
vertex -0.020000 -0.000049 0.000999
vertex -0.020000 0.000000 -0.000000
endloop
endfacet
facet normal -1.000000 0.000148 0.000000
outer loop
vertex -0.020000 -0.000471 -0.000882
vertex -0.020000 -0.000493 -0.000870
vertex -0.020000 0.000000 -0.000000
endloop
endfacet
facet normal -1.000000 0.000000 0.000000
outer loop
vertex -0.020000 -0.000098 0.000995
vertex -0.020000 -0.000074 0.000997
vertex -0.020000 0.000000 -0.000000
endloop
endfacet
facet normal -1.000000 0.000000 0.000000
outer loop
vertex -0.020000 -0.000450 -0.000893
vertex -0.020000 -0.000471 -0.000882
vertex -0.020000 0.000000 -0.000000
endloop
endfacet
facet normal -1.000000 0.000148 0.000000
outer loop
vertex -0.020000 -0.000122 0.000992
vertex -0.020000 -0.000098 0.000995
vertex -0.020000 0.000000 -0.000000
endloop
endfacet
facet normal -1.000000 0.000000 0.000000
outer loop
vertex -0.020000 -0.000428 -0.000904
vertex -0.020000 -0.000450 -0.000893
vertex -0.020000 0.000000 -0.000000
endloop
endfacet
facet normal -1.000000 0.000000 0.000000
outer loop
vertex -0.020000 -0.000147 0.000989
vertex -0.020000 -0.000122 0.000992
vertex -0.020000 0.000000 -0.000000
endloop
endfacet
facet normal -1.000000 0.000148 0.000000
outer loop
vertex -0.020000 -0.000405 -0.000914
vertex -0.020000 -0.000428 -0.000904
vertex -0.020000 0.000000 -0.000000
endloop
endfacet
facet normal -1.000000 -0.000148 0.000000
outer loop
vertex -0.020000 -0.000171 0.000985
vertex -0.020000 -0.000147 0.000989
vertex -0.020000 0.000000 -0.000000
endloop
endfacet
facet normal -1.000000 0.000000 0.000000
outer loop
vertex -0.020000 -0.000383 -0.000924
vertex -0.020000 -0.000405 -0.000914
vertex -0.020000 0.000000 -0.000000
endloop
endfacet
facet normal -1.000000 0.000000 0.000000
outer loop
vertex -0.020000 -0.000195 0.000981
vertex -0.020000 -0.000171 0.000985
vertex -0.020000 0.000000 -0.000000
endloop
endfacet
facet normal -1.000000 -0.000148 0.000000
outer loop
vertex -0.020000 -0.000360 -0.000933
vertex -0.020000 -0.000383 -0.000924
vertex -0.020000 0.000000 -0.000000
endloop
endfacet
facet normal -1.000000 0.000000 0.000000
outer loop
vertex -0.020000 -0.000219 0.000976
vertex -0.020000 -0.000195 0.000981
vertex -0.020000 0.000000 -0.000000
endloop
endfacet
facet normal -1.000000 0.000000 0.000000
outer loop
vertex -0.020000 -0.000337 -0.000942
vertex -0.020000 -0.000360 -0.000933
vertex -0.020000 0.000000 -0.000000
endloop
endfacet
facet normal -1.000000 0.000000 0.000000
outer loop
vertex -0.020000 -0.000243 0.000970
vertex -0.020000 -0.000219 0.000976
vertex -0.020000 0.000000 -0.000000
endloop
endfacet
facet normal -1.000000 0.000000 0.000000
outer loop
vertex -0.020000 -0.000314 -0.000950
vertex -0.020000 -0.000337 -0.000942
vertex -0.020000 0.000000 -0.000000
endloop
endfacet
facet normal -1.000000 0.000000 0.000000
outer loop
vertex -0.020000 -0.000267 0.000964
vertex -0.020000 -0.000243 0.000970
vertex -0.020000 0.000000 -0.000000
endloop
endfacet
facet normal -1.000000 0.000000 0.000000
outer loop
vertex -0.020000 -0.000290 -0.000957
vertex -0.020000 -0.000314 -0.000950
vertex -0.020000 0.000000 -0.000000
endloop
endfacet
facet normal -1.000000 0.000000 0.000000
outer loop
vertex -0.020000 -0.000290 0.000957
vertex -0.020000 -0.000267 0.000964
vertex -0.020000 0.000000 -0.000000
endloop
endfacet
facet normal -1.000000 0.000000 0.000000
outer loop
vertex -0.020000 -0.000267 -0.000964
vertex -0.020000 -0.000290 -0.000957
vertex -0.020000 0.000000 -0.000000
endloop
endfacet
facet normal -1.000000 0.000000 0.000000
outer loop
vertex -0.020000 -0.000314 0.000950
vertex -0.020000 -0.000290 0.000957
vertex -0.020000 0.000000 -0.000000
endloop
endfacet
facet normal -1.000000 0.000000 0.000000
outer loop
vertex -0.020000 -0.000243 -0.000970
vertex -0.020000 -0.000267 -0.000964
vertex -0.020000 0.000000 -0.000000
endloop
endfacet
facet normal -1.000000 0.000148 0.000000
outer loop
vertex -0.020000 -0.000337 0.000942
vertex -0.020000 -0.000314 0.000950
vertex -0.020000 0.000000 -0.000000
endloop
endfacet
facet normal -1.000000 0.000000 0.000000
outer loop
vertex -0.020000 -0.000219 -0.000976
vertex -0.020000 -0.000243 -0.000970
vertex -0.020000 0.000000 -0.000000
endloop
endfacet
facet normal -1.000000 0.000000 0.000000
outer loop
vertex -0.020000 -0.000360 0.000933
vertex -0.020000 -0.000337 0.000942
vertex -0.020000 0.000000 -0.000000
endloop
endfacet
facet normal -1.000000 0.000000 0.000000
outer loop
vertex -0.020000 -0.000195 -0.000981
vertex -0.020000 -0.000219 -0.000976
vertex -0.020000 0.000000 -0.000000
endloop
endfacet
facet normal -1.000000 0.000000 0.000000
outer loop
vertex -0.020000 -0.000383 0.000924
vertex -0.020000 -0.000360 0.000933
vertex -0.020000 0.000000 -0.000000
endloop
endfacet
facet normal -1.000000 0.000000 0.000000
outer loop
vertex -0.020000 -0.000171 -0.000985
vertex -0.020000 -0.000195 -0.000981
vertex -0.020000 0.000000 -0.000000
endloop
endfacet
facet normal -1.000000 0.000148 0.000000
outer loop
vertex -0.020000 -0.000405 0.000914
vertex -0.020000 -0.000383 0.000924
vertex -0.020000 0.000000 -0.000000
endloop
endfacet
facet normal -1.000000 0.000000 0.000000
outer loop
vertex -0.020000 -0.000147 -0.000989
vertex -0.020000 -0.000171 -0.000985
vertex -0.020000 0.000000 -0.000000
endloop
endfacet
facet normal -1.000000 -0.000148 0.000000
outer loop
vertex -0.020000 -0.000428 0.000904
vertex -0.020000 -0.000405 0.000914
vertex -0.020000 0.000000 -0.000000
endloop
endfacet
facet normal -1.000000 0.000000 0.000000
outer loop
vertex -0.020000 -0.000122 -0.000992
vertex -0.020000 -0.000147 -0.000989
vertex -0.020000 0.000000 -0.000000
endloop
endfacet
facet normal -1.000000 0.000148 0.000000
outer loop
vertex -0.020000 -0.000450 0.000893
vertex -0.020000 -0.000428 0.000904
vertex -0.020000 0.000000 -0.000000
endloop
endfacet
facet normal -1.000000 0.000000 0.000000
outer loop
vertex -0.020000 -0.000098 -0.000995
vertex -0.020000 -0.000122 -0.000992
vertex -0.020000 0.000000 -0.000000
endloop
endfacet
facet normal -1.000000 0.000000 0.000000
outer loop
vertex -0.020000 -0.000471 0.000882
vertex -0.020000 -0.000450 0.000893
vertex -0.020000 0.000000 -0.000000
endloop
endfacet
facet normal -1.000000 0.000000 0.000000
outer loop
vertex -0.020000 -0.000074 -0.000997
vertex -0.020000 -0.000098 -0.000995
vertex -0.020000 0.000000 -0.000000
endloop
endfacet
facet normal -1.000000 -0.000148 0.000000
outer loop
vertex -0.020000 -0.000493 0.000870
vertex -0.020000 -0.000471 0.000882
vertex -0.020000 0.000000 -0.000000
endloop
endfacet
facet normal -1.000000 0.000000 0.000000
outer loop
vertex -0.020000 -0.000049 -0.000999
vertex -0.020000 -0.000074 -0.000997
vertex -0.020000 0.000000 -0.000000
endloop
endfacet
facet normal -1.000000 0.000148 0.000000
outer loop
vertex -0.020000 -0.000514 0.000858
vertex -0.020000 -0.000493 0.000870
vertex -0.020000 0.000000 -0.000000
endloop
endfacet
facet normal -1.000000 0.000000 0.000000
outer loop
vertex -0.020000 -0.000025 -0.001000
vertex -0.020000 -0.000049 -0.000999
vertex -0.020000 0.000000 -0.000000
endloop
endfacet
facet normal -1.000000 0.000000 0.000000
outer loop
vertex -0.020000 -0.000535 0.000845
vertex -0.020000 -0.000514 0.000858
vertex -0.020000 0.000000 -0.000000
endloop
endfacet
facet normal -1.000000 0.000000 0.000000
outer loop
vertex -0.020000 0.000000 -0.001000
vertex -0.020000 -0.000025 -0.001000
vertex -0.020000 0.000000 -0.000000
endloop
endfacet
facet normal -1.000000 0.000000 0.000000
outer loop
vertex -0.020000 -0.000556 0.000831
vertex -0.020000 -0.000535 0.000845
vertex -0.020000 0.000000 -0.000000
endloop
endfacet
facet normal -1.000000 -0.000148 0.000000
outer loop
vertex -0.020000 0.000025 -0.001000
vertex -0.020000 0.000000 -0.001000
vertex -0.020000 0.000000 -0.000000
endloop
endfacet
facet normal -1.000000 0.000000 0.000000
outer loop
vertex -0.020000 -0.000576 0.000818
vertex -0.020000 -0.000556 0.000831
vertex -0.020000 0.000000 -0.000000
endloop
endfacet
facet normal -1.000000 0.000148 0.000000
outer loop
vertex -0.020000 0.000049 -0.000999
vertex -0.020000 0.000025 -0.001000
vertex -0.020000 0.000000 -0.000000
endloop
endfacet
facet normal -1.000000 0.000000 0.000000
outer loop
vertex -0.020000 -0.000596 0.000803
vertex -0.020000 -0.000576 0.000818
vertex -0.020000 0.000000 -0.000000
endloop
endfacet
facet normal -1.000000 0.000000 0.000000
outer loop
vertex -0.020000 0.000074 -0.000997
vertex -0.020000 0.000049 -0.000999
vertex -0.020000 0.000000 -0.000000
endloop
endfacet
facet normal -1.000000 0.000000 0.000000
outer loop
vertex -0.020000 -0.000615 0.000788
vertex -0.020000 -0.000596 0.000803
vertex -0.020000 0.000000 -0.000000
endloop
endfacet
facet normal -1.000000 0.000000 0.000000
outer loop
vertex -0.020000 0.000098 -0.000995
vertex -0.020000 0.000074 -0.000997
vertex -0.020000 0.000000 -0.000000
endloop
endfacet
facet normal -1.000000 0.000000 0.000000
outer loop
vertex -0.020000 -0.000634 0.000773
vertex -0.020000 -0.000615 0.000788
vertex -0.020000 0.000000 -0.000000
endloop
endfacet
facet normal -1.000000 0.000000 0.000000
outer loop
vertex -0.020000 0.000122 -0.000992
vertex -0.020000 0.000098 -0.000995
vertex -0.020000 0.000000 -0.000000
endloop
endfacet
facet normal -1.000000 0.000000 0.000000
outer loop
vertex -0.020000 -0.000653 0.000757
vertex -0.020000 -0.000634 0.000773
vertex -0.020000 0.000000 -0.000000
endloop
endfacet
facet normal -1.000000 -0.000148 0.000000
outer loop
vertex -0.020000 0.000147 -0.000989
vertex -0.020000 0.000122 -0.000992
vertex -0.020000 0.000000 -0.000000
endloop
endfacet
facet normal -1.000000 0.000000 0.000000
outer loop
vertex -0.020000 -0.000672 0.000741
vertex -0.020000 -0.000653 0.000757
vertex -0.020000 0.000000 -0.000000
endloop
endfacet
facet normal -1.000000 0.000000 0.000000
outer loop
vertex -0.020000 0.000171 -0.000985
vertex -0.020000 0.000147 -0.000989
vertex -0.020000 0.000000 -0.000000
endloop
endfacet
facet normal -1.000000 0.000000 0.000000
outer loop
vertex -0.020000 -0.000690 0.000724
vertex -0.020000 -0.000672 0.000741
vertex -0.020000 0.000000 -0.000000
endloop
endfacet
facet normal -1.000000 0.000148 0.000000
outer loop
vertex -0.020000 0.000195 -0.000981
vertex -0.020000 0.000171 -0.000985
vertex -0.020000 0.000000 -0.000000
endloop
endfacet
facet normal -1.000000 -0.000074 0.000000
outer loop
vertex -0.020000 -0.000707 0.000707
vertex -0.020000 -0.000690 0.000724
vertex -0.020000 0.000000 -0.000000
endloop
endfacet
facet normal -1.000000 -0.000148 0.000000
outer loop
vertex -0.020000 0.000219 -0.000976
vertex -0.020000 0.000195 -0.000981
vertex -0.020000 0.000000 -0.000000
endloop
endfacet
facet normal -1.000000 0.000000 0.000000
outer loop
vertex -0.020000 -0.000724 0.000690
vertex -0.020000 -0.000707 0.000707
vertex -0.020000 0.000000 -0.000000
endloop
endfacet
facet normal -1.000000 0.000000 0.000000
outer loop
vertex -0.020000 0.000243 -0.000970
vertex -0.020000 0.000219 -0.000976
vertex -0.020000 0.000000 -0.000000
endloop
endfacet
facet normal -1.000000 0.000000 0.000000
outer loop
vertex -0.020000 -0.000741 0.000672
vertex -0.020000 -0.000724 0.000690
vertex -0.020000 0.000000 -0.000000
endloop
endfacet
facet normal -1.000000 0.000000 0.000000
outer loop
vertex -0.020000 0.000267 -0.000964
vertex -0.020000 0.000243 -0.000970
vertex -0.020000 0.000000 -0.000000
endloop
endfacet
facet normal -1.000000 0.000000 0.000000
outer loop
vertex -0.020000 -0.000757 0.000653
vertex -0.020000 -0.000741 0.000672
vertex -0.020000 0.000000 -0.000000
endloop
endfacet
facet normal -1.000000 0.000000 0.000000
outer loop
vertex -0.020000 0.000290 -0.000957
vertex -0.020000 0.000267 -0.000964
vertex -0.020000 0.000000 -0.000000
endloop
endfacet
facet normal -1.000000 0.000000 0.000000
outer loop
vertex -0.020000 -0.000773 0.000634
vertex -0.020000 -0.000757 0.000653
vertex -0.020000 0.000000 -0.000000
endloop
endfacet
facet normal -1.000000 0.000000 0.000000
outer loop
vertex -0.020000 0.000314 -0.000950
vertex -0.020000 0.000290 -0.000957
vertex -0.020000 0.000000 -0.000000
endloop
endfacet
facet normal -1.000000 0.000000 0.000000
outer loop
vertex -0.020000 -0.000788 0.000615
vertex -0.020000 -0.000773 0.000634
vertex -0.020000 0.000000 -0.000000
endloop
endfacet
facet normal -1.000000 -0.000148 0.000000
outer loop
vertex -0.020000 0.000337 -0.000942
vertex -0.020000 0.000314 -0.000950
vertex -0.020000 0.000000 -0.000000
endloop
endfacet
facet normal -1.000000 0.000000 0.000000
outer loop
vertex -0.020000 -0.000803 0.000596
vertex -0.020000 -0.000788 0.000615
vertex -0.020000 0.000000 -0.000000
endloop
endfacet
facet normal -1.000000 0.000000 0.000000
outer loop
vertex -0.020000 0.000360 -0.000933
vertex -0.020000 0.000337 -0.000942
vertex -0.020000 0.000000 -0.000000
endloop
endfacet
facet normal -1.000000 0.000074 0.000000
outer loop
vertex -0.020000 -0.000818 0.000576
vertex -0.020000 -0.000803 0.000596
vertex -0.020000 0.000000 -0.000000
endloop
endfacet
facet normal -1.000000 0.000000 0.000000
outer loop
vertex -0.020000 0.000383 -0.000924
vertex -0.020000 0.000360 -0.000933
vertex -0.020000 0.000000 -0.000000
endloop
endfacet
facet normal -1.000000 -0.000074 0.000000
outer loop
vertex -0.020000 -0.000831 0.000556
vertex -0.020000 -0.000818 0.000576
vertex -0.020000 0.000000 -0.000000
endloop
endfacet
facet normal -1.000000 -0.000148 0.000000
outer loop
vertex -0.020000 0.000405 -0.000914
vertex -0.020000 0.000383 -0.000924
vertex -0.020000 0.000000 -0.000000
endloop
endfacet
facet normal -1.000000 0.000074 0.000000
outer loop
vertex -0.020000 -0.000845 0.000535
vertex -0.020000 -0.000831 0.000556
vertex -0.020000 0.000000 -0.000000
endloop
endfacet
facet normal -1.000000 -0.000003 0.000000
outer loop
vertex -0.020000 0.001000 0.000025
vertex -0.020000 0.001000 0.000000
vertex -0.020000 0.000000 -0.000000
endloop
endfacet
facet normal -1.000000 0.000000 0.000000
outer loop
vertex -0.020000 0.000428 -0.000904
vertex -0.020000 0.000405 -0.000914
vertex -0.020000 0.000000 -0.000000
endloop
endfacet
facet normal -1.000000 -0.000074 0.000000
outer loop
vertex -0.020000 -0.000858 0.000514
vertex -0.020000 -0.000845 0.000535
vertex -0.020000 0.000000 -0.000000
endloop
endfacet
facet normal -1.000000 0.000000 0.000000
outer loop
vertex -0.020000 0.000999 0.000049
vertex -0.020000 0.001000 0.000025
vertex -0.020000 0.000000 -0.000000
endloop
endfacet
facet normal -1.000000 0.000000 0.000000
outer loop
vertex -0.020000 0.000450 -0.000893
vertex -0.020000 0.000428 -0.000904
vertex -0.020000 0.000000 -0.000000
endloop
endfacet
facet normal -1.000000 0.000000 0.000000
outer loop
vertex -0.020000 -0.000870 0.000493
vertex -0.020000 -0.000858 0.000514
vertex -0.020000 0.000000 -0.000000
endloop
endfacet
facet normal -1.000000 0.000009 0.000000
outer loop
vertex -0.020000 0.000997 0.000074
vertex -0.020000 0.000999 0.000049
vertex -0.020000 0.000000 -0.000000
endloop
endfacet
facet normal -1.000000 0.000000 0.000000
outer loop
vertex -0.020000 0.000471 -0.000882
vertex -0.020000 0.000450 -0.000893
vertex -0.020000 0.000000 -0.000000
endloop
endfacet
facet normal -1.000000 0.000000 0.000000
outer loop
vertex -0.020000 -0.000882 0.000471
vertex -0.020000 -0.000870 0.000493
vertex -0.020000 0.000000 -0.000000
endloop
endfacet
facet normal -1.000000 -0.000009 0.000000
outer loop
vertex -0.020000 0.000995 0.000098
vertex -0.020000 0.000997 0.000074
vertex -0.020000 0.000000 -0.000000
endloop
endfacet
facet normal -1.000000 0.000000 0.000000
outer loop
vertex -0.020000 0.000493 -0.000870
vertex -0.020000 0.000471 -0.000882
vertex -0.020000 0.000000 -0.000000
endloop
endfacet
facet normal -1.000000 0.000000 0.000000
outer loop
vertex -0.020000 -0.000893 0.000450
vertex -0.020000 -0.000882 0.000471
vertex -0.020000 0.000000 -0.000000
endloop
endfacet
facet normal -1.000000 0.000000 0.000000
outer loop
vertex -0.020000 0.000992 0.000122
vertex -0.020000 0.000995 0.000098
vertex -0.020000 0.000000 -0.000000
endloop
endfacet
facet normal -1.000000 0.000000 0.000000
outer loop
vertex -0.020000 0.000514 -0.000858
vertex -0.020000 0.000493 -0.000870
vertex -0.020000 0.000000 -0.000000
endloop
endfacet
facet normal -1.000000 0.000000 0.000000
outer loop
vertex -0.020000 -0.000904 0.000428
vertex -0.020000 -0.000893 0.000450
vertex -0.020000 0.000000 -0.000000
endloop
endfacet
facet normal -1.000000 0.000019 0.000000
outer loop
vertex -0.020000 0.000989 0.000147
vertex -0.020000 0.000992 0.000122
vertex -0.020000 0.000000 -0.000000
endloop
endfacet
facet normal -1.000000 0.000000 0.000000
outer loop
vertex -0.020000 0.000535 -0.000845
vertex -0.020000 0.000514 -0.000858
vertex -0.020000 0.000000 -0.000000
endloop
endfacet
facet normal -1.000000 0.000000 0.000000
outer loop
vertex -0.020000 -0.000914 0.000405
vertex -0.020000 -0.000904 0.000428
vertex -0.020000 0.000000 -0.000000
endloop
endfacet
facet normal -1.000000 -0.000019 0.000000
outer loop
vertex -0.020000 0.000985 0.000171
vertex -0.020000 0.000989 0.000147
vertex -0.020000 0.000000 -0.000000
endloop
endfacet
facet normal -1.000000 -0.000148 0.000000
outer loop
vertex -0.020000 0.000556 -0.000831
vertex -0.020000 0.000535 -0.000845
vertex -0.020000 0.000000 -0.000000
endloop
endfacet
facet normal -1.000000 -0.000074 0.000000
outer loop
vertex -0.020000 -0.000924 0.000383
vertex -0.020000 -0.000914 0.000405
vertex -0.020000 0.000000 -0.000000
endloop
endfacet
facet normal -1.000000 0.000019 0.000000
outer loop
vertex -0.020000 0.000981 0.000195
vertex -0.020000 0.000985 0.000171
vertex -0.020000 0.000000 -0.000000
endloop
endfacet
facet normal -1.000000 0.000000 0.000000
outer loop
vertex -0.020000 0.000576 -0.000818
vertex -0.020000 0.000556 -0.000831
vertex -0.020000 0.000000 -0.000000
endloop
endfacet
facet normal -1.000000 0.000000 0.000000
outer loop
vertex -0.020000 -0.000933 0.000360
vertex -0.020000 -0.000924 0.000383
vertex -0.020000 0.000000 -0.000000
endloop
endfacet
facet normal -1.000000 -0.000037 0.000000
outer loop
vertex -0.020000 0.000976 0.000219
vertex -0.020000 0.000981 0.000195
vertex -0.020000 0.000000 -0.000000
endloop
endfacet
facet normal -1.000000 -0.000148 0.000000
outer loop
vertex -0.020000 0.000596 -0.000803
vertex -0.020000 0.000576 -0.000818
vertex -0.020000 0.000000 -0.000000
endloop
endfacet
facet normal -1.000000 0.000000 0.000000
outer loop
vertex -0.020000 -0.000942 0.000337
vertex -0.020000 -0.000933 0.000360
vertex -0.020000 0.000000 -0.000000
endloop
endfacet
facet normal -1.000000 0.000000 0.000000
outer loop
vertex -0.020000 0.000970 0.000243
vertex -0.020000 0.000976 0.000219
vertex -0.020000 0.000000 -0.000000
endloop
endfacet
facet normal -1.000000 0.000000 0.000000
outer loop
vertex -0.020000 0.000615 -0.000788
vertex -0.020000 0.000596 -0.000803
vertex -0.020000 0.000000 -0.000000
endloop
endfacet
facet normal -1.000000 0.000000 0.000000
outer loop
vertex -0.020000 -0.000950 0.000314
vertex -0.020000 -0.000942 0.000337
vertex -0.020000 0.000000 -0.000000
endloop
endfacet
facet normal -1.000000 0.000037 0.000000
outer loop
vertex -0.020000 0.000964 0.000267
vertex -0.020000 0.000970 0.000243
vertex -0.020000 0.000000 -0.000000
endloop
endfacet
facet normal -1.000000 0.000000 0.000000
outer loop
vertex -0.020000 0.000634 -0.000773
vertex -0.020000 0.000615 -0.000788
vertex -0.020000 0.000000 -0.000000
endloop
endfacet
facet normal -1.000000 0.000037 0.000000
outer loop
vertex -0.020000 -0.000957 0.000290
vertex -0.020000 -0.000950 0.000314
vertex -0.020000 0.000000 -0.000000
endloop
endfacet
facet normal -1.000000 0.000000 0.000000
outer loop
vertex -0.020000 0.000957 0.000290
vertex -0.020000 0.000964 0.000267
vertex -0.020000 0.000000 -0.000000
endloop
endfacet
facet normal -1.000000 0.000000 0.000000
outer loop
vertex -0.020000 0.000653 -0.000757
vertex -0.020000 0.000634 -0.000773
vertex -0.020000 0.000000 -0.000000
endloop
endfacet
facet normal -1.000000 0.000000 0.000000
outer loop
vertex -0.020000 -0.000964 0.000267
vertex -0.020000 -0.000957 0.000290
vertex -0.020000 0.000000 -0.000000
endloop
endfacet
facet normal -1.000000 0.000000 0.000000
outer loop
vertex -0.020000 0.000950 0.000314
vertex -0.020000 0.000957 0.000290
vertex -0.020000 0.000000 -0.000000
endloop
endfacet
facet normal -1.000000 -0.000074 0.000000
outer loop
vertex -0.020000 0.000672 -0.000741
vertex -0.020000 0.000653 -0.000757
vertex -0.020000 0.000000 -0.000000
endloop
endfacet
facet normal -1.000000 0.000037 0.000000
outer loop
vertex -0.020000 -0.000970 0.000243
vertex -0.020000 -0.000964 0.000267
vertex -0.020000 0.000000 -0.000000
endloop
endfacet
facet normal -1.000000 0.000000 0.000000
outer loop
vertex -0.020000 0.000942 0.000337
vertex -0.020000 0.000950 0.000314
vertex -0.020000 0.000000 -0.000000
endloop
endfacet
facet normal -1.000000 0.000000 0.000000
outer loop
vertex -0.020000 0.000690 -0.000724
vertex -0.020000 0.000672 -0.000741
vertex -0.020000 0.000000 -0.000000
endloop
endfacet
facet normal -1.000000 0.000000 0.000000
outer loop
vertex -0.020000 -0.000976 0.000219
vertex -0.020000 -0.000970 0.000243
vertex -0.020000 0.000000 -0.000000
endloop
endfacet
facet normal -1.000000 0.000000 0.000000
outer loop
vertex -0.020000 0.000933 0.000360
vertex -0.020000 0.000942 0.000337
vertex -0.020000 0.000000 -0.000000
endloop
endfacet
facet normal -1.000000 -0.000074 0.000000
outer loop
vertex -0.020000 0.000707 -0.000707
vertex -0.020000 0.000690 -0.000724
vertex -0.020000 0.000000 -0.000000
endloop
endfacet
facet normal -1.000000 0.000000 0.000000
outer loop
vertex -0.020000 -0.000981 0.000195
vertex -0.020000 -0.000976 0.000219
vertex -0.020000 0.000000 -0.000000
endloop
endfacet
facet normal -1.000000 0.000000 0.000000
outer loop
vertex -0.020000 0.000924 0.000383
vertex -0.020000 0.000933 0.000360
vertex -0.020000 0.000000 -0.000000
endloop
endfacet
facet normal -1.000000 0.000074 0.000000
outer loop
vertex -0.020000 0.000724 -0.000690
vertex -0.020000 0.000707 -0.000707
vertex -0.020000 0.000000 -0.000000
endloop
endfacet
facet normal -1.000000 0.000000 0.000000
outer loop
vertex -0.020000 -0.000985 0.000171
vertex -0.020000 -0.000981 0.000195
vertex -0.020000 0.000000 -0.000000
endloop
endfacet
facet normal -1.000000 0.000000 0.000000
outer loop
vertex -0.020000 0.000914 0.000405
vertex -0.020000 0.000924 0.000383
vertex -0.020000 0.000000 -0.000000
endloop
endfacet
facet normal -1.000000 -0.000074 0.000000
outer loop
vertex -0.020000 0.000741 -0.000672
vertex -0.020000 0.000724 -0.000690
vertex -0.020000 0.000000 -0.000000
endloop
endfacet
facet normal -1.000000 0.000000 0.000000
outer loop
vertex -0.020000 -0.000989 0.000147
vertex -0.020000 -0.000985 0.000171
vertex -0.020000 0.000000 -0.000000
endloop
endfacet
facet normal -1.000000 0.000000 0.000000
outer loop
vertex -0.020000 0.000904 0.000428
vertex -0.020000 0.000914 0.000405
vertex -0.020000 0.000000 -0.000000
endloop
endfacet
facet normal -1.000000 0.000000 0.000000
outer loop
vertex -0.020000 0.000757 -0.000653
vertex -0.020000 0.000741 -0.000672
vertex -0.020000 0.000000 -0.000000
endloop
endfacet
facet normal -1.000000 -0.000019 0.000000
outer loop
vertex -0.020000 -0.000992 0.000122
vertex -0.020000 -0.000989 0.000147
vertex -0.020000 0.000000 -0.000000
endloop
endfacet
facet normal -1.000000 0.000000 0.000000
outer loop
vertex -0.020000 0.000893 0.000450
vertex -0.020000 0.000904 0.000428
vertex -0.020000 0.000000 -0.000000
endloop
endfacet
facet normal -1.000000 0.000000 0.000000
outer loop
vertex -0.020000 0.000773 -0.000634
vertex -0.020000 0.000757 -0.000653
vertex -0.020000 0.000000 -0.000000
endloop
endfacet
facet normal -1.000000 0.000000 0.000000
outer loop
vertex -0.020000 -0.000995 0.000098
vertex -0.020000 -0.000992 0.000122
vertex -0.020000 0.000000 -0.000000
endloop
endfacet
facet normal -1.000000 0.000000 0.000000
outer loop
vertex -0.020000 0.000882 0.000471
vertex -0.020000 0.000893 0.000450
vertex -0.020000 0.000000 -0.000000
endloop
endfacet
facet normal -1.000000 0.000000 0.000000
outer loop
vertex -0.020000 0.000788 -0.000615
vertex -0.020000 0.000773 -0.000634
vertex -0.020000 0.000000 -0.000000
endloop
endfacet
facet normal -1.000000 0.000000 0.000000
outer loop
vertex -0.020000 -0.000997 0.000074
vertex -0.020000 -0.000995 0.000098
vertex -0.020000 0.000000 -0.000000
endloop
endfacet
facet normal -1.000000 0.000074 0.000000
outer loop
vertex -0.020000 0.000870 0.000493
vertex -0.020000 0.000882 0.000471
vertex -0.020000 0.000000 -0.000000
endloop
endfacet
facet normal -1.000000 0.000000 0.000000
outer loop
vertex -0.020000 0.000803 -0.000596
vertex -0.020000 0.000788 -0.000615
vertex -0.020000 0.000000 -0.000000
endloop
endfacet
facet normal -1.000000 0.000000 0.000000
outer loop
vertex -0.020000 -0.000999 0.000049
vertex -0.020000 -0.000997 0.000074
vertex -0.020000 0.000000 -0.000000
endloop
endfacet
facet normal -1.000000 -0.000074 0.000000
outer loop
vertex -0.020000 0.000858 0.000514
vertex -0.020000 0.000870 0.000493
vertex -0.020000 0.000000 -0.000000
endloop
endfacet
facet normal -1.000000 0.000000 0.000000
outer loop
vertex -0.020000 0.000818 -0.000576
vertex -0.020000 0.000803 -0.000596
vertex -0.020000 0.000000 -0.000000
endloop
endfacet
facet normal -1.000000 0.000000 0.000000
outer loop
vertex -0.020000 -0.001000 0.000025
vertex -0.020000 -0.000999 0.000049
vertex -0.020000 0.000000 -0.000000
endloop
endfacet
facet normal -1.000000 0.000074 0.000000
outer loop
vertex -0.020000 0.000845 0.000535
vertex -0.020000 0.000858 0.000514
vertex -0.020000 0.000000 -0.000000
endloop
endfacet
facet normal -1.000000 0.000074 0.000000
outer loop
vertex -0.020000 0.000831 -0.000556
vertex -0.020000 0.000818 -0.000576
vertex -0.020000 0.000000 -0.000000
endloop
endfacet
facet normal -1.000000 0.000000 0.000000
outer loop
vertex -0.020000 -0.001000 -0.000000
vertex -0.020000 -0.001000 0.000025
vertex -0.020000 0.000000 -0.000000
endloop
endfacet
facet normal -1.000000 -0.000074 0.000000
outer loop
vertex -0.020000 0.000831 0.000556
vertex -0.020000 0.000845 0.000535
vertex -0.020000 0.000000 -0.000000
endloop
endfacet
facet normal -1.000000 0.000000 0.000000
outer loop
vertex -0.020000 0.000845 -0.000535
vertex -0.020000 0.000831 -0.000556
vertex -0.020000 0.000000 -0.000000
endloop
endfacet
facet normal -1.000000 0.000002 0.000000
outer loop
vertex -0.020000 -0.001000 -0.000025
vertex -0.020000 -0.001000 -0.000000
vertex -0.020000 0.000000 -0.000000
endloop
endfacet
facet normal -1.000000 0.000000 0.000000
outer loop
vertex -0.020000 0.000818 0.000576
vertex -0.020000 0.000831 0.000556
vertex -0.020000 0.000000 -0.000000
endloop
endfacet
facet normal -1.000000 -0.000074 0.000000
outer loop
vertex -0.020000 0.000858 -0.000514
vertex -0.020000 0.000845 -0.000535
vertex -0.020000 0.000000 -0.000000
endloop
endfacet
facet normal -1.000000 0.000000 0.000000
outer loop
vertex -0.020000 -0.000999 -0.000049
vertex -0.020000 -0.001000 -0.000025
vertex -0.020000 0.000000 -0.000000
endloop
endfacet
facet normal -1.000000 0.000000 0.000000
outer loop
vertex -0.020000 0.000803 0.000596
vertex -0.020000 0.000818 0.000576
vertex -0.020000 0.000000 -0.000000
endloop
endfacet
facet normal -1.000000 0.000074 0.000000
outer loop
vertex -0.020000 0.000870 -0.000493
vertex -0.020000 0.000858 -0.000514
vertex -0.020000 0.000000 -0.000000
endloop
endfacet
facet normal -1.000000 0.000000 0.000000
outer loop
vertex -0.020000 -0.000997 -0.000074
vertex -0.020000 -0.000999 -0.000049
vertex -0.020000 0.000000 -0.000000
endloop
endfacet
facet normal -1.000000 0.000000 0.000000
outer loop
vertex -0.020000 0.000788 0.000615
vertex -0.020000 0.000803 0.000596
vertex -0.020000 0.000000 -0.000000
endloop
endfacet
facet normal -1.000000 -0.000074 0.000000
outer loop
vertex -0.020000 0.000882 -0.000471
vertex -0.020000 0.000870 -0.000493
vertex -0.020000 0.000000 -0.000000
endloop
endfacet
facet normal -1.000000 -0.000009 0.000000
outer loop
vertex -0.020000 -0.000995 -0.000098
vertex -0.020000 -0.000997 -0.000074
vertex -0.020000 0.000000 -0.000000
endloop
endfacet
facet normal -1.000000 0.000000 0.000000
outer loop
vertex -0.020000 0.000773 0.000634
vertex -0.020000 0.000788 0.000615
vertex -0.020000 0.000000 -0.000000
endloop
endfacet
facet normal -1.000000 0.000000 0.000000
outer loop
vertex -0.020000 0.000893 -0.000450
vertex -0.020000 0.000882 -0.000471
vertex -0.020000 0.000000 -0.000000
endloop
endfacet
facet normal -1.000000 0.000000 0.000000
outer loop
vertex -0.020000 -0.000992 -0.000122
vertex -0.020000 -0.000995 -0.000098
vertex -0.020000 0.000000 -0.000000
endloop
endfacet
facet normal -1.000000 0.000000 0.000000
outer loop
vertex -0.020000 0.000757 0.000653
vertex -0.020000 0.000773 0.000634
vertex -0.020000 0.000000 -0.000000
endloop
endfacet
facet normal -1.000000 0.000074 0.000000
outer loop
vertex -0.020000 0.000904 -0.000428
vertex -0.020000 0.000893 -0.000450
vertex -0.020000 0.000000 -0.000000
endloop
endfacet
facet normal -1.000000 0.000000 0.000000
outer loop
vertex -0.020000 -0.000989 -0.000147
vertex -0.020000 -0.000992 -0.000122
vertex -0.020000 0.000000 -0.000000
endloop
endfacet
facet normal -1.000000 -0.000074 0.000000
outer loop
vertex -0.020000 0.000741 0.000672
vertex -0.020000 0.000757 0.000653
vertex -0.020000 0.000000 -0.000000
endloop
endfacet
facet normal -1.000000 0.000000 0.000000
outer loop
vertex -0.020000 0.000914 -0.000405
vertex -0.020000 0.000904 -0.000428
vertex -0.020000 0.000000 -0.000000
endloop
endfacet
facet normal -1.000000 0.000000 0.000000
outer loop
vertex -0.020000 -0.000985 -0.000171
vertex -0.020000 -0.000989 -0.000147
vertex -0.020000 0.000000 -0.000000
endloop
endfacet
facet normal -1.000000 0.000074 0.000000
outer loop
vertex -0.020000 0.000724 0.000690
vertex -0.020000 0.000741 0.000672
vertex -0.020000 0.000000 -0.000000
endloop
endfacet
facet normal -1.000000 0.000000 0.000000
outer loop
vertex -0.020000 0.000924 -0.000383
vertex -0.020000 0.000914 -0.000405
vertex -0.020000 0.000000 -0.000000
endloop
endfacet
facet normal -1.000000 0.000000 0.000000
outer loop
vertex -0.020000 -0.000981 -0.000195
vertex -0.020000 -0.000985 -0.000171
vertex -0.020000 0.000000 -0.000000
endloop
endfacet
facet normal -1.000000 0.000000 0.000000
outer loop
vertex -0.020000 0.000707 0.000707
vertex -0.020000 0.000724 0.000690
vertex -0.020000 0.000000 -0.000000
endloop
endfacet
facet normal -1.000000 0.000000 0.000000
outer loop
vertex -0.020000 0.000933 -0.000360
vertex -0.020000 0.000924 -0.000383
vertex -0.020000 0.000000 -0.000000
endloop
endfacet
facet normal -1.000000 0.000000 0.000000
outer loop
vertex -0.020000 -0.000976 -0.000219
vertex -0.020000 -0.000981 -0.000195
vertex -0.020000 0.000000 -0.000000
endloop
endfacet
facet normal -1.000000 0.000000 0.000000
outer loop
vertex -0.020000 0.000690 0.000724
vertex -0.020000 0.000707 0.000707
vertex -0.020000 0.000000 -0.000000
endloop
endfacet
facet normal -1.000000 0.000000 0.000000
outer loop
vertex -0.020000 0.000942 -0.000337
vertex -0.020000 0.000933 -0.000360
vertex -0.020000 0.000000 -0.000000
endloop
endfacet
facet normal -1.000000 -0.000037 0.000000
outer loop
vertex -0.020000 -0.000970 -0.000243
vertex -0.020000 -0.000976 -0.000219
vertex -0.020000 0.000000 -0.000000
endloop
endfacet
facet normal -1.000000 0.000000 0.000000
outer loop
vertex -0.020000 0.000672 0.000741
vertex -0.020000 0.000690 0.000724
vertex -0.020000 0.000000 -0.000000
endloop
endfacet
facet normal -1.000000 -0.000037 0.000000
outer loop
vertex -0.020000 0.000950 -0.000314
vertex -0.020000 0.000942 -0.000337
vertex -0.020000 0.000000 -0.000000
endloop
endfacet
facet normal -1.000000 0.000000 0.000000
outer loop
vertex -0.020000 -0.000964 -0.000267
vertex -0.020000 -0.000970 -0.000243
vertex -0.020000 0.000000 -0.000000
endloop
endfacet
facet normal -1.000000 0.000000 0.000000
outer loop
vertex -0.020000 0.000653 0.000757
vertex -0.020000 0.000672 0.000741
vertex -0.020000 0.000000 -0.000000
endloop
endfacet
facet normal -1.000000 0.000000 0.000000
outer loop
vertex -0.020000 0.000957 -0.000290
vertex -0.020000 0.000950 -0.000314
vertex -0.020000 0.000000 -0.000000
endloop
endfacet
facet normal -1.000000 0.000000 0.000000
outer loop
vertex -0.020000 -0.000957 -0.000290
vertex -0.020000 -0.000964 -0.000267
vertex -0.020000 0.000000 -0.000000
endloop
endfacet
facet normal -1.000000 0.000000 0.000000
outer loop
vertex -0.020000 0.000634 0.000773
vertex -0.020000 0.000653 0.000757
vertex -0.020000 0.000000 -0.000000
endloop
endfacet
facet normal -1.000000 0.000000 0.000000
outer loop
vertex -0.020000 0.000964 -0.000267
vertex -0.020000 0.000957 -0.000290
vertex -0.020000 0.000000 -0.000000
endloop
endfacet
facet normal -1.000000 0.000000 0.000000
outer loop
vertex -0.020000 -0.000950 -0.000314
vertex -0.020000 -0.000957 -0.000290
vertex -0.020000 0.000000 -0.000000
endloop
endfacet
facet normal -1.000000 -0.000148 0.000000
outer loop
vertex -0.020000 0.000615 0.000788
vertex -0.020000 0.000634 0.000773
vertex -0.020000 0.000000 -0.000000
endloop
endfacet
facet normal -1.000000 0.000000 0.000000
outer loop
vertex -0.020000 0.000970 -0.000243
vertex -0.020000 0.000964 -0.000267
vertex -0.020000 0.000000 -0.000000
endloop
endfacet
facet normal -1.000000 0.000000 0.000000
outer loop
vertex -0.020000 -0.000942 -0.000337
vertex -0.020000 -0.000950 -0.000314
vertex -0.020000 0.000000 -0.000000
endloop
endfacet
facet normal -1.000000 0.000000 0.000000
outer loop
vertex -0.020000 0.000596 0.000803
vertex -0.020000 0.000615 0.000788
vertex -0.020000 0.000000 -0.000000
endloop
endfacet
facet normal -1.000000 -0.000037 0.000000
outer loop
vertex -0.020000 0.000976 -0.000219
vertex -0.020000 0.000970 -0.000243
vertex -0.020000 0.000000 -0.000000
endloop
endfacet
facet normal -1.000000 -0.000037 0.000000
outer loop
vertex -0.020000 -0.000933 -0.000360
vertex -0.020000 -0.000942 -0.000337
vertex -0.020000 0.000000 -0.000000
endloop
endfacet
facet normal -1.000000 0.000000 0.000000
outer loop
vertex -0.020000 0.000576 0.000818
vertex -0.020000 0.000596 0.000803
vertex -0.020000 0.000000 -0.000000
endloop
endfacet
facet normal -1.000000 0.000037 0.000000
outer loop
vertex -0.020000 0.000981 -0.000195
vertex -0.020000 0.000976 -0.000219
vertex -0.020000 0.000000 -0.000000
endloop
endfacet
facet normal -1.000000 0.000000 0.000000
outer loop
vertex -0.020000 -0.000924 -0.000383
vertex -0.020000 -0.000933 -0.000360
vertex -0.020000 0.000000 -0.000000
endloop
endfacet
facet normal -1.000000 0.000000 0.000000
outer loop
vertex -0.020000 0.000556 0.000831
vertex -0.020000 0.000576 0.000818
vertex -0.020000 0.000000 -0.000000
endloop
endfacet
facet normal -1.000000 0.000000 0.000000
outer loop
vertex -0.020000 0.000985 -0.000171
vertex -0.020000 0.000981 -0.000195
vertex -0.020000 0.000000 -0.000000
endloop
endfacet
facet normal -1.000000 0.000000 0.000000
outer loop
vertex -0.020000 -0.000914 -0.000405
vertex -0.020000 -0.000924 -0.000383
vertex -0.020000 0.000000 -0.000000
endloop
endfacet
facet normal -1.000000 0.000000 0.000000
outer loop
vertex -0.020000 0.000535 0.000845
vertex -0.020000 0.000556 0.000831
vertex -0.020000 0.000000 -0.000000
endloop
endfacet
facet normal -1.000000 0.000000 0.000000
outer loop
vertex -0.020000 0.000989 -0.000147
vertex -0.020000 0.000985 -0.000171
vertex -0.020000 0.000000 -0.000000
endloop
endfacet
facet normal -1.000000 0.000000 0.000000
outer loop
vertex -0.020000 -0.000904 -0.000428
vertex -0.020000 -0.000914 -0.000405
vertex -0.020000 0.000000 -0.000000
endloop
endfacet
facet normal -1.000000 0.000000 0.000000
outer loop
vertex -0.020000 0.000514 0.000858
vertex -0.020000 0.000535 0.000845
vertex -0.020000 0.000000 -0.000000
endloop
endfacet
facet normal -1.000000 0.000000 0.000000
outer loop
vertex -0.020000 0.000992 -0.000122
vertex -0.020000 0.000989 -0.000147
vertex -0.020000 0.000000 -0.000000
endloop
endfacet
facet normal -1.000000 0.000000 0.000000
outer loop
vertex -0.020000 -0.000893 -0.000450
vertex -0.020000 -0.000904 -0.000428
vertex -0.020000 0.000000 -0.000000
endloop
endfacet
facet normal -1.000000 0.000000 0.000000
outer loop
vertex -0.020000 0.000493 0.000870
vertex -0.020000 0.000514 0.000858
vertex -0.020000 0.000000 -0.000000
endloop
endfacet
facet normal -1.000000 0.000000 0.000000
outer loop
vertex -0.020000 0.000995 -0.000098
vertex -0.020000 0.000992 -0.000122
vertex -0.020000 0.000000 -0.000000
endloop
endfacet
facet normal -1.000000 0.000000 0.000000
outer loop
vertex -0.020000 -0.000882 -0.000471
vertex -0.020000 -0.000893 -0.000450
vertex -0.020000 0.000000 -0.000000
endloop
endfacet
facet normal -1.000000 0.000000 0.000000
outer loop
vertex -0.020000 0.000471 0.000882
vertex -0.020000 0.000493 0.000870
vertex -0.020000 0.000000 -0.000000
endloop
endfacet
facet normal -1.000000 0.000000 0.000000
outer loop
vertex -0.020000 0.000997 -0.000074
vertex -0.020000 0.000995 -0.000098
vertex -0.020000 0.000000 -0.000000
endloop
endfacet
facet normal -1.000000 0.000000 0.000000
outer loop
vertex -0.020000 -0.000870 -0.000493
vertex -0.020000 -0.000882 -0.000471
vertex -0.020000 0.000000 -0.000000
endloop
endfacet
facet normal -1.000000 0.000000 0.000000
outer loop
vertex -0.020000 0.000450 0.000893
vertex -0.020000 0.000471 0.000882
vertex -0.020000 0.000000 -0.000000
endloop
endfacet
facet normal -1.000000 0.000009 0.000000
outer loop
vertex -0.020000 0.000999 -0.000049
vertex -0.020000 0.000997 -0.000074
vertex -0.020000 0.000000 -0.000000
endloop
endfacet
facet normal -1.000000 0.000000 0.000000
outer loop
vertex -0.020000 -0.000858 -0.000514
vertex -0.020000 -0.000870 -0.000493
vertex -0.020000 0.000000 -0.000000
endloop
endfacet
facet normal -1.000000 0.000000 0.000000
outer loop
vertex -0.020000 0.000428 0.000904
vertex -0.020000 0.000450 0.000893
vertex -0.020000 0.000000 -0.000000
endloop
endfacet
facet normal -1.000000 -0.000009 0.000000
outer loop
vertex -0.020000 0.001000 -0.000025
vertex -0.020000 0.000999 -0.000049
vertex -0.020000 0.000000 -0.000000
endloop
endfacet
facet normal -1.000000 0.000000 0.000000
outer loop
vertex -0.020000 -0.000845 -0.000535
vertex -0.020000 -0.000858 -0.000514
vertex -0.020000 0.000000 -0.000000
endloop
endfacet
facet normal -1.000000 0.000000 0.000000
outer loop
vertex -0.020000 0.000405 0.000914
vertex -0.020000 0.000428 0.000904
vertex -0.020000 0.000000 -0.000000
endloop
endfacet
facet normal -1.000000 0.000000 0.000000
outer loop
vertex -0.020000 0.001000 0.000000
vertex -0.020000 0.001000 -0.000025
vertex -0.020000 0.000000 -0.000000
endloop
endfacet
facet normal -1.000000 0.000000 0.000000
outer loop
vertex -0.020000 -0.000831 -0.000556
vertex -0.020000 -0.000845 -0.000535
vertex -0.020000 0.000000 -0.000000
endloop
endfacet
facet normal -1.000000 0.000000 0.000000
outer loop
vertex -0.020000 0.000383 0.000924
vertex -0.020000 0.000405 0.000914
vertex -0.020000 0.000000 -0.000000
endloop
endfacet
facet normal -1.000000 0.000000 0.000000
outer loop
vertex -0.020000 -0.000818 -0.000576
vertex -0.020000 -0.000831 -0.000556
vertex -0.020000 0.000000 -0.000000
endloop
endfacet
facet normal -1.000000 0.000000 0.000000
outer loop
vertex -0.020000 0.000360 0.000933
vertex -0.020000 0.000383 0.000924
vertex -0.020000 0.000000 -0.000000
endloop
endfacet
facet normal -1.000000 0.000000 0.000000
outer loop
vertex -0.020000 -0.000803 -0.000596
vertex -0.020000 -0.000818 -0.000576
vertex -0.020000 0.000000 -0.000000
endloop
endfacet
facet normal -1.000000 0.000000 0.000000
outer loop
vertex -0.020000 0.000337 0.000942
vertex -0.020000 0.000360 0.000933
vertex -0.020000 0.000000 -0.000000
endloop
endfacet
endsolid Exported from Blender-2.82 (sub 7)
